<svg width="1440" height="974" viewBox="0 0 1440 974" fill="none" xmlns="http://www.w3.org/2000/svg">
<rect y="130" width="1440" height="1" fill="#1B2725"/>
<rect y="251" width="1440" height="1" fill="#1B2725"/>
<rect y="372" width="1440" height="1" fill="#1B2725"/>
<rect y="493" width="1440" height="1" fill="#1B2725"/>
<rect y="614" width="1440" height="1" fill="#1B2725"/>
<rect y="735" width="1440" height="1" fill="#1B2725"/>
<rect x="1330" width="1" height="974" fill="url(#paint0_linear_137_858)"/>
<rect x="1209" width="1" height="974" fill="url(#paint1_linear_137_858)"/>
<rect x="1088" width="1" height="974" fill="url(#paint2_linear_137_858)"/>
<rect x="967" width="1" height="974" fill="url(#paint3_linear_137_858)"/>
<rect x="846" width="1" height="974" fill="url(#paint4_linear_137_858)"/>
<rect x="725" width="1" height="974" fill="url(#paint5_linear_137_858)"/>
<rect x="604" width="1" height="974" fill="url(#paint6_linear_137_858)"/>
<rect x="483" width="1" height="974" fill="url(#paint7_linear_137_858)"/>
<rect x="362" width="1" height="974" fill="url(#paint8_linear_137_858)"/>
<rect x="241" width="1" height="974" fill="url(#paint9_linear_137_858)"/>
<rect x="120" width="1" height="974" fill="url(#paint10_linear_137_858)"/>
<path d="M1330.06 98C1331.97 108.186 1332.92 113.279 1335.41 117.252C1337.42 120.475 1340.16 123.19 1343.39 125.188C1347.38 127.65 1352.39 128.557 1362.4 130.371L1363.11 130.5L1362.4 130.629C1352.39 132.443 1347.38 133.35 1343.39 135.812C1340.16 137.81 1337.42 140.525 1335.41 143.748C1332.92 147.721 1331.97 152.814 1330.06 163C1328.15 152.814 1327.19 147.721 1324.71 143.748C1322.69 140.525 1319.96 137.81 1316.72 135.812C1312.74 133.35 1307.73 132.443 1297.71 130.629L1297 130.5L1297.71 130.371C1307.73 128.557 1312.74 127.65 1316.72 125.188C1319.96 123.19 1322.69 120.475 1324.71 117.252C1327.19 113.279 1328.15 108.186 1330.06 98Z" fill="#1B2725"/>
<path d="M241 716C242.873 725.915 250.673 733.645 260.605 735.429L261 735.5L260.605 735.571C250.673 737.355 242.873 745.085 241 755C239.127 745.085 231.327 737.355 221.395 735.571L221 735.5L221.395 735.429C231.327 733.645 239.127 725.915 241 716Z" fill="#1B2725"/>
<defs>
<linearGradient id="paint0_linear_137_858" x1="1330.5" y1="0" x2="1330.5" y2="974" gradientUnits="userSpaceOnUse">
<stop stop-color="#1B2725"/>
<stop offset="0.677083" stop-color="#21302D" stop-opacity="0.661458"/>
<stop offset="1" stop-color="#171C1B" stop-opacity="0"/>
</linearGradient>
<linearGradient id="paint1_linear_137_858" x1="1209.5" y1="0" x2="1209.5" y2="974" gradientUnits="userSpaceOnUse">
<stop stop-color="#1B2725"/>
<stop offset="0.677083" stop-color="#21302D" stop-opacity="0.661458"/>
<stop offset="1" stop-color="#171C1B" stop-opacity="0"/>
</linearGradient>
<linearGradient id="paint2_linear_137_858" x1="1088.5" y1="0" x2="1088.5" y2="974" gradientUnits="userSpaceOnUse">
<stop stop-color="#1B2725"/>
<stop offset="0.677083" stop-color="#21302D" stop-opacity="0.661458"/>
<stop offset="1" stop-color="#171C1B" stop-opacity="0"/>
</linearGradient>
<linearGradient id="paint3_linear_137_858" x1="967.5" y1="0" x2="967.5" y2="974" gradientUnits="userSpaceOnUse">
<stop stop-color="#1B2725"/>
<stop offset="0.677083" stop-color="#21302D" stop-opacity="0.661458"/>
<stop offset="1" stop-color="#171C1B" stop-opacity="0"/>
</linearGradient>
<linearGradient id="paint4_linear_137_858" x1="846.5" y1="0" x2="846.5" y2="974" gradientUnits="userSpaceOnUse">
<stop stop-color="#1B2725"/>
<stop offset="0.677083" stop-color="#21302D" stop-opacity="0.661458"/>
<stop offset="1" stop-color="#171C1B" stop-opacity="0"/>
</linearGradient>
<linearGradient id="paint5_linear_137_858" x1="725.5" y1="0" x2="725.5" y2="974" gradientUnits="userSpaceOnUse">
<stop stop-color="#1B2725"/>
<stop offset="0.677083" stop-color="#21302D" stop-opacity="0.661458"/>
<stop offset="1" stop-color="#171C1B" stop-opacity="0"/>
</linearGradient>
<linearGradient id="paint6_linear_137_858" x1="604.5" y1="0" x2="604.5" y2="974" gradientUnits="userSpaceOnUse">
<stop stop-color="#1B2725"/>
<stop offset="0.677083" stop-color="#21302D" stop-opacity="0.661458"/>
<stop offset="1" stop-color="#171C1B" stop-opacity="0"/>
</linearGradient>
<linearGradient id="paint7_linear_137_858" x1="483.5" y1="0" x2="483.5" y2="974" gradientUnits="userSpaceOnUse">
<stop stop-color="#1B2725"/>
<stop offset="0.677083" stop-color="#21302D" stop-opacity="0.661458"/>
<stop offset="1" stop-color="#171C1B" stop-opacity="0"/>
</linearGradient>
<linearGradient id="paint8_linear_137_858" x1="362.5" y1="0" x2="362.5" y2="974" gradientUnits="userSpaceOnUse">
<stop stop-color="#1B2725"/>
<stop offset="0.677083" stop-color="#21302D" stop-opacity="0.661458"/>
<stop offset="1" stop-color="#171C1B" stop-opacity="0"/>
</linearGradient>
<linearGradient id="paint9_linear_137_858" x1="241.5" y1="0" x2="241.5" y2="974" gradientUnits="userSpaceOnUse">
<stop stop-color="#1B2725"/>
<stop offset="0.677083" stop-color="#21302D" stop-opacity="0.661458"/>
<stop offset="1" stop-color="#171C1B" stop-opacity="0"/>
</linearGradient>
<linearGradient id="paint10_linear_137_858" x1="120.5" y1="0" x2="120.5" y2="974" gradientUnits="userSpaceOnUse">
<stop stop-color="#1B2725"/>
<stop offset="0.677083" stop-color="#21302D" stop-opacity="0.661458"/>
<stop offset="1" stop-color="#171C1B" stop-opacity="0"/>
</linearGradient>
</defs>
</svg>
